<mxfile host="app.diagrams.net" modified="2023-11-26T05:15:01.850Z" agent="Mozilla/5.0 (Macintosh; Intel Mac OS X 10_15_7) AppleWebKit/537.36 (KHTML, like Gecko) Chrome/119.0.0.0 Safari/537.36" etag="jKMd9yaGk8GtHDRL9Nrt" version="22.1.4" type="device">
  <diagram name="Page-1" id="nLzrzLFbf5JJVmnxJgUG">
    <mxGraphModel dx="1908" dy="986" grid="1" gridSize="10" guides="1" tooltips="1" connect="1" arrows="1" fold="1" page="1" pageScale="1" pageWidth="850" pageHeight="1100" math="0" shadow="0">
      <root>
        <mxCell id="0" />
        <mxCell id="1" parent="0" />
        <mxCell id="BQ_6qbYJ80KCwi29p7ra-15" value="" style="ellipse;whiteSpace=wrap;html=1;fillColor=#fff2cc;strokeColor=#d6b656;" vertex="1" parent="1">
          <mxGeometry x="260" y="147.5" width="80" height="147.5" as="geometry" />
        </mxCell>
        <mxCell id="BQ_6qbYJ80KCwi29p7ra-4" value="" style="shape=parallelogram;perimeter=parallelogramPerimeter;whiteSpace=wrap;html=1;fixedSize=1;rotation=-90;" vertex="1" parent="1">
          <mxGeometry x="200" y="170" width="205" height="125" as="geometry" />
        </mxCell>
        <mxCell id="BQ_6qbYJ80KCwi29p7ra-14" value="" style="ellipse;whiteSpace=wrap;html=1;fillColor=#fff2cc;strokeColor=#d6b656;rotation=0;" vertex="1" parent="1">
          <mxGeometry x="242.5" y="170" width="100" height="147.5" as="geometry" />
        </mxCell>
        <mxCell id="BQ_6qbYJ80KCwi29p7ra-7" value="" style="endArrow=none;html=1;rounded=0;" edge="1" parent="1">
          <mxGeometry width="50" height="50" relative="1" as="geometry">
            <mxPoint x="280" y="60" as="sourcePoint" />
            <mxPoint x="280" y="450" as="targetPoint" />
          </mxGeometry>
        </mxCell>
        <mxCell id="BQ_6qbYJ80KCwi29p7ra-6" value="" style="endArrow=none;html=1;rounded=0;" edge="1" parent="1">
          <mxGeometry width="50" height="50" relative="1" as="geometry">
            <mxPoint x="52.5" y="210" as="sourcePoint" />
            <mxPoint x="532.5" y="290" as="targetPoint" />
          </mxGeometry>
        </mxCell>
        <mxCell id="BQ_6qbYJ80KCwi29p7ra-5" value="" style="shape=parallelogram;perimeter=parallelogramPerimeter;whiteSpace=wrap;html=1;fixedSize=1;rotation=-90;" vertex="1" parent="1">
          <mxGeometry x="137.5" y="201.25" width="205" height="125" as="geometry" />
        </mxCell>
        <mxCell id="BQ_6qbYJ80KCwi29p7ra-16" value="" style="ellipse;whiteSpace=wrap;html=1;fillColor=#FFFFCC;strokeColor=#d6b656;" vertex="1" parent="1">
          <mxGeometry x="187.5" y="190" width="100" height="147.5" as="geometry" />
        </mxCell>
      </root>
    </mxGraphModel>
  </diagram>
</mxfile>
